<mxfile host="app.diagrams.net" modified="2024-05-30T19:04:38.982Z" agent="Mozilla/5.0 (Windows NT 10.0; Win64; x64) AppleWebKit/537.36 (KHTML, like Gecko) Chrome/125.0.0.0 Safari/537.36" etag="vnlhq9d9pIiEWcWqVypX" version="24.4.10" type="device">
  <diagram name="Страница — 1" id="15TtiQTmq8ani7RiqjqE">
    <mxGraphModel dx="1323" dy="770" grid="1" gridSize="10" guides="1" tooltips="1" connect="1" arrows="1" fold="1" page="1" pageScale="1" pageWidth="827" pageHeight="1169" math="0" shadow="0">
      <root>
        <mxCell id="0" />
        <mxCell id="1" parent="0" />
        <mxCell id="UYLiUbOp0Mw2huqqGPip-1" value="" style="rounded=0;whiteSpace=wrap;html=1;" vertex="1" parent="1">
          <mxGeometry x="210" y="160" width="800" height="640" as="geometry" />
        </mxCell>
        <mxCell id="UYLiUbOp0Mw2huqqGPip-2" value="Информационная система для оценки качества проведенных занятий" style="text;html=1;align=center;verticalAlign=middle;whiteSpace=wrap;rounded=0;" vertex="1" parent="1">
          <mxGeometry x="330" y="170" width="560" height="30" as="geometry" />
        </mxCell>
        <mxCell id="UYLiUbOp0Mw2huqqGPip-3" value="Авторизация" style="ellipse;whiteSpace=wrap;html=1;" vertex="1" parent="1">
          <mxGeometry x="550" y="200" width="120" height="80" as="geometry" />
        </mxCell>
        <mxCell id="UYLiUbOp0Mw2huqqGPip-8" style="edgeStyle=orthogonalEdgeStyle;rounded=0;orthogonalLoop=1;jettySize=auto;html=1;entryX=0;entryY=0.5;entryDx=0;entryDy=0;endArrow=none;endFill=0;" edge="1" parent="1" source="UYLiUbOp0Mw2huqqGPip-4" target="UYLiUbOp0Mw2huqqGPip-3">
          <mxGeometry relative="1" as="geometry" />
        </mxCell>
        <mxCell id="UYLiUbOp0Mw2huqqGPip-26" style="rounded=0;orthogonalLoop=1;jettySize=auto;html=1;entryX=0;entryY=0.5;entryDx=0;entryDy=0;endArrow=none;endFill=0;" edge="1" parent="1" source="UYLiUbOp0Mw2huqqGPip-4" target="UYLiUbOp0Mw2huqqGPip-25">
          <mxGeometry relative="1" as="geometry" />
        </mxCell>
        <mxCell id="UYLiUbOp0Mw2huqqGPip-4" value="Преподаватель&lt;div&gt;&lt;br&gt;&lt;/div&gt;" style="shape=umlActor;html=1;verticalLabelPosition=bottom;verticalAlign=top;align=center;" vertex="1" parent="1">
          <mxGeometry x="110" y="210" width="30" height="60" as="geometry" />
        </mxCell>
        <mxCell id="UYLiUbOp0Mw2huqqGPip-6" style="edgeStyle=orthogonalEdgeStyle;rounded=0;orthogonalLoop=1;jettySize=auto;html=1;entryX=1;entryY=0.5;entryDx=0;entryDy=0;strokeColor=default;endArrow=none;endFill=0;" edge="1" parent="1" source="UYLiUbOp0Mw2huqqGPip-5" target="UYLiUbOp0Mw2huqqGPip-3">
          <mxGeometry relative="1" as="geometry" />
        </mxCell>
        <mxCell id="UYLiUbOp0Mw2huqqGPip-10" style="rounded=0;orthogonalLoop=1;jettySize=auto;html=1;entryX=1;entryY=0;entryDx=0;entryDy=0;endArrow=none;endFill=0;" edge="1" parent="1" source="UYLiUbOp0Mw2huqqGPip-5" target="UYLiUbOp0Mw2huqqGPip-9">
          <mxGeometry relative="1" as="geometry" />
        </mxCell>
        <mxCell id="UYLiUbOp0Mw2huqqGPip-5" value="&lt;div&gt;Студент&lt;/div&gt;" style="shape=umlActor;html=1;verticalLabelPosition=bottom;verticalAlign=top;align=center;" vertex="1" parent="1">
          <mxGeometry x="1090" y="210" width="30" height="60" as="geometry" />
        </mxCell>
        <mxCell id="UYLiUbOp0Mw2huqqGPip-12" style="rounded=0;orthogonalLoop=1;jettySize=auto;html=1;entryX=1;entryY=1;entryDx=0;entryDy=0;dashed=1;endArrow=open;endFill=0;" edge="1" parent="1" source="UYLiUbOp0Mw2huqqGPip-9" target="UYLiUbOp0Mw2huqqGPip-11">
          <mxGeometry relative="1" as="geometry" />
        </mxCell>
        <mxCell id="UYLiUbOp0Mw2huqqGPip-13" value="&amp;lt;&amp;lt;include&amp;gt;&amp;gt;&lt;div&gt;&lt;br&gt;&lt;/div&gt;" style="edgeLabel;html=1;align=center;verticalAlign=middle;resizable=0;points=[];" vertex="1" connectable="0" parent="UYLiUbOp0Mw2huqqGPip-12">
          <mxGeometry x="-0.0309" y="-1" relative="1" as="geometry">
            <mxPoint y="-18" as="offset" />
          </mxGeometry>
        </mxCell>
        <mxCell id="UYLiUbOp0Mw2huqqGPip-9" value="Выставление оценки" style="ellipse;whiteSpace=wrap;html=1;" vertex="1" parent="1">
          <mxGeometry x="860" y="330" width="120" height="80" as="geometry" />
        </mxCell>
        <mxCell id="UYLiUbOp0Mw2huqqGPip-11" value="Ознакомление с критериями" style="ellipse;whiteSpace=wrap;html=1;" vertex="1" parent="1">
          <mxGeometry x="640" y="270" width="120" height="80" as="geometry" />
        </mxCell>
        <mxCell id="UYLiUbOp0Mw2huqqGPip-14" value="Предоставление письменной обратной реакции преподавателю" style="ellipse;whiteSpace=wrap;html=1;" vertex="1" parent="1">
          <mxGeometry x="620" y="380" width="130" height="90" as="geometry" />
        </mxCell>
        <mxCell id="UYLiUbOp0Mw2huqqGPip-15" style="rounded=0;orthogonalLoop=1;jettySize=auto;html=1;entryX=1;entryY=0.5;entryDx=0;entryDy=0;dashed=1;endArrow=open;endFill=0;" edge="1" parent="1" target="UYLiUbOp0Mw2huqqGPip-14">
          <mxGeometry relative="1" as="geometry">
            <mxPoint x="872" y="370" as="sourcePoint" />
            <mxPoint x="752" y="348" as="targetPoint" />
          </mxGeometry>
        </mxCell>
        <mxCell id="UYLiUbOp0Mw2huqqGPip-16" value="&amp;lt;&amp;lt;include&amp;gt;&amp;gt;&lt;div&gt;&lt;br&gt;&lt;/div&gt;" style="edgeLabel;html=1;align=center;verticalAlign=middle;resizable=0;points=[];" vertex="1" connectable="0" parent="UYLiUbOp0Mw2huqqGPip-15">
          <mxGeometry x="-0.0309" y="-1" relative="1" as="geometry">
            <mxPoint x="-32" y="-9" as="offset" />
          </mxGeometry>
        </mxCell>
        <mxCell id="UYLiUbOp0Mw2huqqGPip-21" value="Выполнение тестов, составленных преподавателем" style="ellipse;whiteSpace=wrap;html=1;" vertex="1" parent="1">
          <mxGeometry x="800" y="520" width="167" height="70" as="geometry" />
        </mxCell>
        <mxCell id="UYLiUbOp0Mw2huqqGPip-22" style="rounded=0;orthogonalLoop=1;jettySize=auto;html=1;endArrow=none;endFill=0;" edge="1" parent="1" source="UYLiUbOp0Mw2huqqGPip-5" target="UYLiUbOp0Mw2huqqGPip-21">
          <mxGeometry relative="1" as="geometry" />
        </mxCell>
        <mxCell id="UYLiUbOp0Mw2huqqGPip-23" value="Составление критериев оценки занятия" style="ellipse;whiteSpace=wrap;html=1;" vertex="1" parent="1">
          <mxGeometry x="246" y="275" width="167" height="70" as="geometry" />
        </mxCell>
        <mxCell id="UYLiUbOp0Mw2huqqGPip-24" style="rounded=0;orthogonalLoop=1;jettySize=auto;html=1;entryX=0.039;entryY=0.333;entryDx=0;entryDy=0;entryPerimeter=0;endArrow=none;endFill=0;" edge="1" parent="1" source="UYLiUbOp0Mw2huqqGPip-4" target="UYLiUbOp0Mw2huqqGPip-23">
          <mxGeometry relative="1" as="geometry" />
        </mxCell>
        <mxCell id="UYLiUbOp0Mw2huqqGPip-25" value="Просмотр обратной реакции обучающихся" style="ellipse;whiteSpace=wrap;html=1;" vertex="1" parent="1">
          <mxGeometry x="246" y="380" width="167" height="70" as="geometry" />
        </mxCell>
        <mxCell id="UYLiUbOp0Mw2huqqGPip-34" style="rounded=0;orthogonalLoop=1;jettySize=auto;html=1;entryX=1;entryY=1;entryDx=0;entryDy=0;endArrow=block;endFill=1;dashed=1;" edge="1" parent="1" source="UYLiUbOp0Mw2huqqGPip-27" target="UYLiUbOp0Mw2huqqGPip-25">
          <mxGeometry relative="1" as="geometry" />
        </mxCell>
        <mxCell id="UYLiUbOp0Mw2huqqGPip-35" value="Text" style="edgeLabel;html=1;align=center;verticalAlign=middle;resizable=0;points=[];" vertex="1" connectable="0" parent="UYLiUbOp0Mw2huqqGPip-34">
          <mxGeometry x="0.0026" y="1" relative="1" as="geometry">
            <mxPoint x="9" y="-16" as="offset" />
          </mxGeometry>
        </mxCell>
        <mxCell id="UYLiUbOp0Mw2huqqGPip-36" value="&amp;lt;&amp;lt;extend&amp;gt;&amp;gt;" style="edgeLabel;html=1;align=center;verticalAlign=middle;resizable=0;points=[];" vertex="1" connectable="0" parent="UYLiUbOp0Mw2huqqGPip-34">
          <mxGeometry x="-0.0544" y="-18" relative="1" as="geometry">
            <mxPoint as="offset" />
          </mxGeometry>
        </mxCell>
        <mxCell id="UYLiUbOp0Mw2huqqGPip-27" value="Генерация отчёта по итогам обратной реакции обучающихся&amp;nbsp;" style="ellipse;whiteSpace=wrap;html=1;" vertex="1" parent="1">
          <mxGeometry x="430" y="455" width="190" height="95" as="geometry" />
        </mxCell>
        <mxCell id="UYLiUbOp0Mw2huqqGPip-31" style="edgeStyle=orthogonalEdgeStyle;rounded=0;orthogonalLoop=1;jettySize=auto;html=1;exitX=0.5;exitY=0.5;exitDx=0;exitDy=0;exitPerimeter=0;endArrow=block;endFill=0;" edge="1" parent="1" source="UYLiUbOp0Mw2huqqGPip-28">
          <mxGeometry relative="1" as="geometry">
            <mxPoint x="125" y="300" as="targetPoint" />
          </mxGeometry>
        </mxCell>
        <mxCell id="UYLiUbOp0Mw2huqqGPip-28" value="&lt;div&gt;Аудитор&lt;/div&gt;" style="shape=umlActor;html=1;verticalLabelPosition=bottom;verticalAlign=top;align=center;" vertex="1" parent="1">
          <mxGeometry x="110" y="525" width="30" height="60" as="geometry" />
        </mxCell>
        <mxCell id="UYLiUbOp0Mw2huqqGPip-37" value="Анализ статистики или анонимной выборки результата тестирования" style="ellipse;whiteSpace=wrap;html=1;" vertex="1" parent="1">
          <mxGeometry x="234.5" y="507.5" width="190" height="95" as="geometry" />
        </mxCell>
        <mxCell id="UYLiUbOp0Mw2huqqGPip-39" style="rounded=0;orthogonalLoop=1;jettySize=auto;html=1;entryX=0.603;entryY=1.071;entryDx=0;entryDy=0;endArrow=block;endFill=1;dashed=1;entryPerimeter=0;" edge="1" parent="1" source="UYLiUbOp0Mw2huqqGPip-37" target="UYLiUbOp0Mw2huqqGPip-25">
          <mxGeometry relative="1" as="geometry">
            <mxPoint x="465" y="480" as="sourcePoint" />
            <mxPoint x="398" y="450" as="targetPoint" />
          </mxGeometry>
        </mxCell>
        <mxCell id="UYLiUbOp0Mw2huqqGPip-41" value="&amp;lt;&amp;lt;extend&amp;gt;&amp;gt;" style="edgeLabel;html=1;align=center;verticalAlign=middle;resizable=0;points=[];" vertex="1" connectable="0" parent="UYLiUbOp0Mw2huqqGPip-39">
          <mxGeometry x="-0.0544" y="-18" relative="1" as="geometry">
            <mxPoint x="-49" y="4" as="offset" />
          </mxGeometry>
        </mxCell>
        <mxCell id="UYLiUbOp0Mw2huqqGPip-45" value="Составление тестов на занятие" style="ellipse;whiteSpace=wrap;html=1;" vertex="1" parent="1">
          <mxGeometry x="463" y="335" width="167" height="70" as="geometry" />
        </mxCell>
        <mxCell id="UYLiUbOp0Mw2huqqGPip-46" style="rounded=0;orthogonalLoop=1;jettySize=auto;html=1;entryX=0.975;entryY=0.683;entryDx=0;entryDy=0;endArrow=block;endFill=1;dashed=1;entryPerimeter=0;" edge="1" parent="1" source="UYLiUbOp0Mw2huqqGPip-45" target="UYLiUbOp0Mw2huqqGPip-23">
          <mxGeometry relative="1" as="geometry">
            <mxPoint x="465" y="480" as="sourcePoint" />
            <mxPoint x="398" y="450" as="targetPoint" />
          </mxGeometry>
        </mxCell>
        <mxCell id="UYLiUbOp0Mw2huqqGPip-47" value="Text" style="edgeLabel;html=1;align=center;verticalAlign=middle;resizable=0;points=[];" vertex="1" connectable="0" parent="UYLiUbOp0Mw2huqqGPip-46">
          <mxGeometry x="0.0026" y="1" relative="1" as="geometry">
            <mxPoint x="9" y="-16" as="offset" />
          </mxGeometry>
        </mxCell>
        <mxCell id="UYLiUbOp0Mw2huqqGPip-48" value="&amp;lt;&amp;lt;extend&amp;gt;&amp;gt;" style="edgeLabel;html=1;align=center;verticalAlign=middle;resizable=0;points=[];" vertex="1" connectable="0" parent="UYLiUbOp0Mw2huqqGPip-46">
          <mxGeometry x="-0.0544" y="-18" relative="1" as="geometry">
            <mxPoint as="offset" />
          </mxGeometry>
        </mxCell>
        <mxCell id="UYLiUbOp0Mw2huqqGPip-49" value="Анализ эффективности занятий" style="ellipse;whiteSpace=wrap;html=1;" vertex="1" parent="1">
          <mxGeometry x="290" y="680" width="190" height="95" as="geometry" />
        </mxCell>
        <mxCell id="UYLiUbOp0Mw2huqqGPip-50" style="rounded=0;orthogonalLoop=1;jettySize=auto;html=1;entryX=0;entryY=0.5;entryDx=0;entryDy=0;endArrow=none;endFill=0;" edge="1" parent="1" source="UYLiUbOp0Mw2huqqGPip-28" target="UYLiUbOp0Mw2huqqGPip-49">
          <mxGeometry relative="1" as="geometry" />
        </mxCell>
        <mxCell id="UYLiUbOp0Mw2huqqGPip-51" style="rounded=0;orthogonalLoop=1;jettySize=auto;html=1;entryX=0.592;entryY=1.003;entryDx=0;entryDy=0;dashed=1;endArrow=open;endFill=0;exitX=0.394;exitY=0.029;exitDx=0;exitDy=0;exitPerimeter=0;entryPerimeter=0;" edge="1" parent="1" source="UYLiUbOp0Mw2huqqGPip-49" target="UYLiUbOp0Mw2huqqGPip-37">
          <mxGeometry relative="1" as="geometry">
            <mxPoint x="842" y="680" as="sourcePoint" />
            <mxPoint x="720" y="735" as="targetPoint" />
          </mxGeometry>
        </mxCell>
        <mxCell id="UYLiUbOp0Mw2huqqGPip-52" value="&amp;lt;&amp;lt;include&amp;gt;&amp;gt;&lt;div&gt;&lt;br&gt;&lt;/div&gt;" style="edgeLabel;html=1;align=center;verticalAlign=middle;resizable=0;points=[];" vertex="1" connectable="0" parent="UYLiUbOp0Mw2huqqGPip-51">
          <mxGeometry x="-0.0309" y="-1" relative="1" as="geometry">
            <mxPoint x="-47" y="-3" as="offset" />
          </mxGeometry>
        </mxCell>
        <mxCell id="UYLiUbOp0Mw2huqqGPip-53" style="rounded=0;orthogonalLoop=1;jettySize=auto;html=1;entryX=0.417;entryY=0.982;entryDx=0;entryDy=0;dashed=1;endArrow=open;endFill=0;exitX=0.756;exitY=0.053;exitDx=0;exitDy=0;exitPerimeter=0;entryPerimeter=0;" edge="1" parent="1" source="UYLiUbOp0Mw2huqqGPip-49" target="UYLiUbOp0Mw2huqqGPip-27">
          <mxGeometry relative="1" as="geometry">
            <mxPoint x="375" y="693" as="sourcePoint" />
            <mxPoint x="357" y="613" as="targetPoint" />
          </mxGeometry>
        </mxCell>
        <mxCell id="UYLiUbOp0Mw2huqqGPip-54" value="&amp;lt;&amp;lt;include&amp;gt;&amp;gt;&lt;div&gt;&lt;br&gt;&lt;/div&gt;" style="edgeLabel;html=1;align=center;verticalAlign=middle;resizable=0;points=[];" vertex="1" connectable="0" parent="UYLiUbOp0Mw2huqqGPip-53">
          <mxGeometry x="-0.0309" y="-1" relative="1" as="geometry">
            <mxPoint x="-47" y="-3" as="offset" />
          </mxGeometry>
        </mxCell>
      </root>
    </mxGraphModel>
  </diagram>
</mxfile>
